<svg width="70" height="69" viewBox="0 0 70 69" fill="none" xmlns="http://www.w3.org/2000/svg">
<g clip-path="url(#clip0_286_645)">
<path d="M60.1085 52.7224C60.1085 52.7224 60.5964 53.2103 61.182 53.991C61.182 53.991 61.2795 53.8934 61.3771 53.991C47.3246 -1.43848 9.85114 14.761 9.85114 14.761C9.85114 14.761 40.7863 29.4966 60.1085 52.7224Z" fill="url(#paint0_linear_286_645)"></path>
<path d="M61.182 53.9911C60.5964 53.2104 60.1085 52.7225 60.1085 52.7225C40.7863 29.4967 9.85114 14.7611 9.85114 14.7611C9.85114 14.7611 4.28868 55.6501 61.182 53.9911Z" fill="url(#paint1_linear_286_645)"></path>
<path d="M16.4871 17.6887C16.4871 17.6887 16.4871 19.0549 16.3895 21.1042C16.2919 23.1536 16.3895 25.9836 16.3895 28.716C16.4871 31.5461 16.6822 34.2785 17.1702 36.3278C17.2678 36.8158 17.3653 37.3037 17.5605 37.694C17.5605 37.8892 17.7557 38.0844 17.7557 38.2796C17.7557 38.4747 17.8533 38.5723 17.8533 38.7675C17.9509 38.8651 17.9509 39.0603 18.0485 39.1579C18.146 39.2554 18.0485 39.353 18.146 39.4506C18.2436 39.5482 18.2436 39.7434 18.2436 39.7434L18.2436 39.9386H18.0485C18.0485 39.9386 17.9509 39.841 17.9509 39.6458C17.8533 39.5482 17.8533 39.5482 17.8533 39.353C17.7557 39.2554 17.7557 39.0603 17.6581 38.9627C17.5605 38.8651 17.5605 38.6699 17.5605 38.4747C17.5605 38.2796 17.3653 38.0844 17.3653 37.8892C17.1702 37.4989 17.0726 37.0109 16.975 36.523C16.4871 34.4737 16.1943 31.6436 15.9991 28.9112C15.804 26.1788 15.7064 23.3487 15.7064 21.2018C15.7064 19.0549 15.7064 17.6887 15.7064 17.6887C15.7064 17.2983 15.9015 17.1032 16.2919 17.1032C16.1943 17.0056 16.4871 17.2983 16.4871 17.6887Z" fill="url(#paint2_linear_286_645)"></path>
<path d="M25.1723 23.2512C25.1723 23.2512 24.9771 24.6174 24.6844 26.6667C24.3916 28.716 24.1964 31.4485 23.9037 34.2785C23.7085 37.0109 23.6109 39.841 23.7085 41.8903C23.8061 42.3782 23.7085 42.8662 23.8061 43.3541C23.8061 43.7444 24.0012 44.1348 23.9037 44.4276C24.0013 44.7203 24.0012 44.9155 24.0012 45.1107C24.0012 45.3058 24.0988 45.4034 24.0988 45.4034C24.0988 45.4034 24.0988 45.5986 24.0012 45.501C24.0012 45.501 23.8061 45.501 23.9037 45.4034C23.9037 45.4034 23.8061 45.3058 23.8061 45.1107C23.7085 45.0131 23.6109 44.7203 23.5133 44.4276C23.4157 44.1348 23.4157 43.7444 23.2206 43.3541C23.123 42.8662 23.123 42.4758 23.0254 41.9879C22.8302 39.841 22.8302 37.1085 22.8302 34.3761C22.9278 31.5461 23.123 28.8136 23.2206 26.7643C23.4157 24.6174 23.5133 23.3487 23.5133 23.3487C23.6109 23.056 23.8061 22.8608 24.1964 22.8608C24.9771 22.6656 25.2699 22.9584 25.1723 23.2512Z" fill="url(#paint3_linear_286_645)"></path>
<path d="M18.8291 18.079C18.8291 18.079 20.1954 17.8839 22.2447 17.7863C24.294 17.6887 27.0265 17.4935 29.9541 17.4935C32.6865 17.4935 35.5165 17.5911 37.5659 17.8839C38.0538 17.9815 38.5417 18.079 39.0297 18.1766C39.5176 18.2742 39.8104 18.3718 40.1031 18.4694C40.3959 18.567 40.6887 18.6646 40.7862 18.7622C40.8838 18.8597 40.9814 18.9573 40.9814 18.9573C40.9814 18.9573 41.079 19.0549 40.9814 19.1525C40.9814 19.1525 40.8838 19.2501 40.7862 19.1525C40.7862 19.1525 40.6887 19.0549 40.4935 19.0549C40.3959 18.9573 40.1031 18.8597 39.8104 18.7622C39.6152 18.567 39.3224 18.4694 38.9321 18.4694C38.4441 18.3718 38.0538 18.3718 37.5659 18.2742C35.5165 17.9815 32.6865 18.079 30.0517 18.1766C27.3192 18.3718 24.5868 18.567 22.4399 18.7622C20.3905 19.0549 19.0243 19.2501 19.0243 19.2501C18.7316 19.3477 18.4388 19.0549 18.3412 18.7622C18.2436 18.2742 18.4388 18.079 18.8291 18.079Z" fill="url(#paint4_linear_286_645)"></path>
<path d="M28.0023 24.9101C28.0023 24.9101 28.0999 24.8125 28.1975 24.7149C28.2951 24.6173 28.5879 24.5198 28.783 24.5198C29.0758 24.4222 29.3686 24.3246 29.6613 24.227C29.9541 24.1294 30.3444 23.9342 30.8324 23.8366C31.2227 23.6415 31.7106 23.5439 32.1986 23.4463C32.6865 23.3487 33.272 23.1535 33.76 23.0559C34.0527 22.9584 34.2479 22.9584 34.6383 22.9584C34.8334 22.9584 34.931 22.8608 35.1262 22.8608L35.5165 22.6656C35.8093 22.568 36.1021 22.6656 36.3948 22.568C36.6876 22.4704 36.9803 22.568 37.3707 22.568C37.761 22.568 37.9562 22.568 38.3466 22.568C38.6393 22.6656 38.9321 22.568 39.2248 22.6656C39.8104 22.6656 40.3959 22.8608 40.9814 22.8608C41.5669 22.8608 42.0549 23.1535 42.5428 23.2511C42.8356 23.3487 43.0307 23.3487 43.3235 23.4463C43.6163 23.5439 43.8114 23.5439 44.0066 23.7391C44.2994 23.6415 44.6897 23.8366 44.9825 23.9342C45.2752 24.0318 45.6656 24.227 45.7632 24.3246C46.2511 24.6173 46.5439 24.7149 46.5439 24.7149L46.6415 24.8125L46.5439 24.9101C46.5439 24.9101 46.2511 24.8125 45.8608 24.6173C45.568 24.5198 45.2752 24.4222 44.9825 24.3246C44.6897 24.227 44.2018 24.1294 43.8114 23.9342C43.6163 23.9342 43.3235 23.8366 43.2259 23.7391C42.9332 23.6415 42.738 23.6415 42.5428 23.6415C42.0549 23.5439 41.5669 23.4463 40.9814 23.4463C40.3959 23.4463 39.908 23.3487 39.3224 23.3487C39.1273 23.3487 38.7369 23.3487 38.5417 23.3487C38.249 23.2511 37.9562 23.3487 37.6635 23.4463C37.0779 23.2511 36.7852 23.3487 36.59 23.3487C36.2972 23.4463 36.0045 23.3487 35.7117 23.4463L35.3214 23.4463C35.1262 23.4463 35.0286 23.5439 34.8334 23.5439C34.5407 23.6415 34.3455 23.6415 34.0527 23.7391C33.5648 23.8366 32.9793 24.0318 32.4913 24.1294C32.0034 24.227 31.6131 24.4222 31.2227 24.6173C30.8324 24.8125 30.442 25.0077 30.1492 25.1053C29.8565 25.2029 29.5637 25.3005 29.3685 25.4956C29.0758 25.5932 28.9782 25.6908 28.8806 25.7884C28.783 25.886 28.783 25.886 28.783 25.886C28.4903 25.9836 28.1975 25.886 28.0023 25.6908C27.7096 25.398 27.7096 25.0077 28.0023 24.9101Z" fill="url(#paint5_linear_286_645)"></path>
<path d="M36.1996 30.375C36.1996 30.375 37.1755 30.375 38.7369 30.375C40.2983 30.375 42.3476 30.4726 44.397 30.5702C46.4463 30.6678 48.5932 30.8629 50.1546 31.2533C50.545 31.2533 50.9353 31.4485 51.2281 31.5461C51.5208 31.6436 51.8136 31.7412 52.0088 31.7412C52.3015 31.8388 52.3991 31.9364 52.4967 32.034C52.5943 32.1316 52.5943 32.1316 52.5943 32.1316C52.5943 32.1316 52.6919 32.2292 52.5943 32.3268C52.5943 32.3268 52.4967 32.4243 52.3991 32.3268C52.3991 32.3268 52.3991 32.3267 52.3015 32.2292C52.2039 32.1316 52.0088 32.1316 51.9112 32.034C51.716 32.034 51.4232 31.9364 51.1305 31.8388C50.8377 31.7412 50.4474 31.7412 50.1546 31.6436C48.6908 31.3509 46.4463 31.2533 44.4946 31.2533C42.4452 31.1557 40.3959 31.2533 38.7369 31.3509C37.1755 31.3509 36.1021 31.4485 36.1021 31.4485C35.8093 31.5461 35.5165 31.2533 35.5165 30.8629C35.6141 30.5702 35.8093 30.375 36.1996 30.375Z" fill="url(#paint6_linear_286_645)"></path>
<path d="M44.4945 36.7182C44.4945 36.7182 47.5197 37.4013 50.4474 38.182C51.2281 38.3772 52.0088 38.5723 52.5943 38.7675C52.887 38.8651 53.2774 38.8651 53.5701 38.9627C53.8629 39.0603 54.1557 39.1579 54.4484 39.2555C54.7412 39.353 54.9364 39.353 55.2291 39.4506C55.5219 39.5482 55.6195 39.6458 55.8147 39.6458C56.1074 39.7434 56.3026 39.7434 56.3026 39.7434L56.4002 39.841L56.3026 39.9386C56.3026 39.9386 56.1074 39.9386 55.8147 39.841C55.6195 39.841 55.5219 39.7434 55.2291 39.6458C55.034 39.6458 54.7412 39.5482 54.4484 39.4506C54.1557 39.353 53.8629 39.2555 53.4726 39.2555C53.1798 39.1579 52.7895 39.1579 52.4967 39.0603C51.8136 38.9627 51.0329 38.7675 50.3498 38.6699C47.3246 38.182 44.2994 37.6941 44.2994 37.6941C44.0066 37.5965 43.8114 37.4013 43.8114 37.0109C43.909 36.9134 44.2018 36.6206 44.4945 36.7182Z" fill="url(#paint7_linear_286_645)"></path>
<path d="M54.2533 45.8914C54.2533 45.8914 54.6436 46.0866 55.2291 46.2817C55.5219 46.3793 55.9122 46.5745 56.205 46.6721C56.5953 46.8673 56.9857 47.0624 57.2785 47.16C57.6688 47.3552 58.0592 47.5504 58.2543 47.7455C58.3519 47.8431 58.6447 47.9407 58.7423 48.0383C58.8399 48.1359 59.035 48.1359 59.2302 48.3311C59.3278 48.4286 59.4254 48.5262 59.523 48.6238C59.6205 48.7214 59.7181 48.819 59.7181 48.819C59.8157 48.9166 59.9133 49.0142 59.9133 49.0142L60.0109 49.1118L59.9133 49.2093C59.9133 49.2093 59.8157 49.1118 59.7181 49.0142C59.6205 48.9166 59.6205 48.9166 59.4254 48.9166C59.3278 48.819 59.2302 48.7214 59.035 48.7214C58.9374 48.6238 58.7423 48.6238 58.6447 48.5262C58.5471 48.4286 58.2543 48.3311 58.1567 48.2335C57.7664 48.0383 57.4736 47.9407 57.0833 47.7455C56.6929 47.5504 56.4002 47.4528 56.0098 47.2576C55.6195 47.0624 55.3267 46.9648 55.034 46.8673C54.4484 46.6721 53.9605 46.5745 53.9605 46.5745C53.7653 46.5745 53.6677 46.2817 53.7653 46.1841C53.8629 45.8914 54.0581 45.8914 54.2533 45.8914Z" fill="url(#paint8_linear_286_645)"></path>
<path d="M49.0812 40.9144C49.0812 40.9144 49.0812 41.1096 49.0812 41.4999C49.0812 41.8903 49.0812 42.2806 49.0812 42.8662C49.0812 43.4517 49.1787 44.1348 49.2763 44.8179C49.2763 45.2082 49.3739 45.501 49.3739 45.8914C49.3739 46.2817 49.4715 46.5745 49.5691 47.0624C49.5691 47.4527 49.7643 47.8431 49.8619 48.1359C49.9594 48.4286 50.057 48.9166 50.1546 49.2093C50.2522 49.5021 50.4474 49.8924 50.545 50.1852C50.6425 50.4779 50.7401 50.7707 50.9353 50.9659C51.0329 51.2586 51.2281 51.4538 51.2281 51.649C51.3257 51.7466 51.4232 51.8442 51.3257 51.9418C51.4232 52.0393 51.4232 52.0393 51.5208 52.1369C51.716 52.3321 51.9112 52.5273 51.9112 52.5273C51.9112 52.5273 52.0088 52.6249 51.9112 52.7224C51.9112 52.7224 51.8136 52.82 51.716 52.7224C51.716 52.7224 51.6184 52.6249 51.3257 52.3321C51.2281 52.2345 51.2281 52.2345 51.1305 52.1369C51.0329 52.0393 50.9353 51.9418 50.9353 51.9418C50.7401 51.7466 50.6425 51.4538 50.4474 51.2586C50.3498 50.9659 50.1546 50.7707 49.9594 50.3804C49.8619 50.0876 49.6667 49.6973 49.5691 49.4045C49.4715 49.1117 49.2763 48.7214 49.2763 48.331C49.1787 48.0383 49.0812 47.5503 48.9836 47.2576C48.886 46.9648 48.7884 46.4769 48.6908 46.1841C48.5932 45.8914 48.4956 45.4034 48.398 45.1107C48.3005 44.4275 48.2029 43.7444 48.0077 43.1589C48.0077 42.5734 47.9101 42.0855 47.8125 41.7927C47.8125 41.4023 47.7149 41.3048 47.7149 41.3048C47.6173 41.012 47.9101 40.7192 48.2029 40.6216C48.7884 40.4265 48.9836 40.6216 49.0812 40.9144Z" fill="url(#paint9_linear_286_645)"></path>
<path d="M38.6393 32.8146C38.6393 32.8146 38.7369 33.8881 38.8345 35.547C38.9321 36.4253 39.0297 37.3036 39.1273 38.3771C39.2249 38.865 39.2249 39.4505 39.3224 39.9385C39.42 40.4264 39.42 41.0119 39.6152 41.5974C39.7128 42.0854 39.8104 42.7685 39.908 43.2564C40.0056 43.7444 40.2007 44.3299 40.2983 44.8178C40.3959 45.1106 40.3959 45.3058 40.4935 45.5985C40.5911 45.8913 40.5911 46.0865 40.6887 46.3792C40.7862 46.672 40.7863 46.8671 40.8838 46.9647C40.8838 47.1599 41.079 47.3551 41.079 47.5503C41.079 47.7454 41.2742 47.9406 41.2742 48.1358C41.2742 48.331 41.3718 48.4285 41.5669 48.6237C41.6645 48.9165 41.7621 49.2092 41.9573 49.4044C42.1525 49.7948 42.2501 50.0875 42.2501 50.0875L42.2501 50.2827L42.0549 50.2827C42.0549 50.2827 41.8597 50.0875 41.5669 49.5996C41.3718 49.4044 41.2742 49.1117 41.1766 48.8189C41.079 48.7213 41.079 48.5261 40.8838 48.331C40.8838 48.1358 40.6887 47.9406 40.6887 47.7454C40.6887 47.5503 40.4935 47.3551 40.4935 47.1599C40.3959 46.8671 40.3959 46.672 40.2007 46.4768C40.1031 46.184 40.1031 45.9889 39.908 45.7937C39.8104 45.5009 39.8104 45.3058 39.7128 45.013C39.6152 44.5251 39.42 43.9395 39.3224 43.4516C39.2249 42.9637 39.0297 42.3781 39.0297 41.7926C38.9321 41.3047 38.8345 40.6216 38.7369 40.1336C38.6393 39.6457 38.5417 38.9626 38.4442 38.4747C38.249 37.4988 38.1514 36.4253 37.9562 35.6446C37.6635 33.9857 37.6635 32.8146 37.6635 32.8146C37.5659 32.5218 37.8586 32.2291 38.1514 32.1315C38.4442 32.2291 38.6393 32.4243 38.6393 32.8146Z" fill="url(#paint10_linear_286_645)"></path>
<path d="M32.4913 28.2281C32.4913 28.2281 32.3938 28.5209 32.2962 29.0088C32.1986 29.4967 32.0034 30.2774 31.9058 31.1557C31.6131 33.0099 31.2227 35.352 31.1251 37.7916C31.1251 38.3772 31.0275 39.0603 31.0275 39.6458C31.0275 40.2313 31.0275 40.8168 31.0275 41.4024C31.0275 41.9879 31.1251 42.4758 31.1251 43.0613C31.2227 43.5493 31.3203 44.0372 31.4179 44.5252C31.4179 44.7203 31.5155 45.0131 31.6131 45.1107C31.6131 45.3059 31.8082 45.501 31.8082 45.6962C31.9058 45.989 32.101 46.3793 32.101 46.5745C32.1986 46.8672 32.2962 46.9648 32.2962 47.16C32.3938 47.2576 32.2962 47.3552 32.2962 47.3552L32.2962 47.5504H32.101C32.101 47.5504 32.0034 47.4528 31.9058 47.3552C31.8082 47.2576 31.7107 46.9648 31.6131 46.8672C31.5155 46.5745 31.4179 46.2817 31.2227 45.8914C31.2227 45.6962 31.0275 45.501 31.0275 45.3058C31.0275 45.1107 30.8324 44.9155 30.8324 44.7203C30.7348 44.2324 30.6372 43.7445 30.5396 43.2565C30.442 42.7686 30.442 42.1831 30.2468 41.5975C30.2468 41.012 30.1493 40.3289 30.1493 39.7434C30.1493 39.1579 30.1493 38.5723 30.0517 37.8892C30.0517 35.352 30.3444 32.9123 30.6372 31.0581C30.7348 30.1798 30.93 29.3992 30.93 28.8136C31.0275 28.3257 31.0275 27.9353 31.0275 27.9353C31.1251 27.6426 31.3203 27.4474 31.7107 27.4474C32.3938 27.545 32.5889 27.9353 32.4913 28.2281Z" fill="url(#paint11_linear_286_645)"></path>
<path d="M10.3391 13.8827C10.3391 13.8827 10.6318 13.9803 11.0222 14.1755C11.4125 14.3707 12.0956 14.6634 12.7787 15.1514C13.5594 15.5417 14.4377 16.0296 15.5112 16.7128C16.487 17.2983 17.7557 17.9814 19.1219 18.7621C19.7074 19.1524 20.4881 19.5428 21.0736 19.9331C21.7568 20.4211 22.5374 20.8114 23.2206 21.2993C24.6844 22.1776 26.1482 23.2511 27.7096 24.227C28.4903 24.8125 29.271 25.2028 30.0517 25.7884C30.8323 26.3739 31.7106 26.8618 32.4913 27.4473C33.272 28.0329 34.0527 28.6184 34.8334 29.2039C35.3214 29.4967 35.6141 29.7894 36.1021 30.0822L37.1755 30.7653C38.7369 31.9363 40.3959 33.205 41.8597 34.4736C42.6404 35.0591 43.3235 35.7422 44.1042 36.3278C44.8849 36.9133 45.568 37.5964 46.1535 38.1819C46.8366 38.865 47.5197 39.353 48.2029 40.0361C48.7884 40.6216 49.4715 41.3047 50.1546 41.7926C51.3256 42.9637 52.5943 44.0371 53.5701 45.2082C54.6436 46.2816 55.6195 47.2575 56.3026 48.1358C57.0833 49.1117 57.7664 49.7948 58.3519 50.5755C59.523 51.9417 60.2061 52.6248 60.2061 52.6248C60.3037 52.7224 60.3037 52.9176 60.2061 53.0152C60.1085 53.1127 59.9133 53.1127 59.8157 53.0152C59.8157 53.0152 59.1326 52.332 57.9616 50.9658C57.376 50.3803 56.6929 49.502 55.8146 48.6237C54.9364 47.7455 53.9605 46.7696 52.9846 45.7937C51.9112 44.7203 50.7401 43.7444 49.4715 42.4757C48.886 41.8902 48.2029 41.4023 47.5197 40.7192C46.8366 40.2312 46.1535 39.5481 45.3728 38.9626C44.5921 38.3771 44.0066 37.7916 43.2259 37.206C42.4452 36.6205 41.6645 36.035 40.8838 35.4495C39.6152 34.1808 38.0538 33.0098 36.3948 31.9363L35.1262 31.0581C34.6382 30.7653 34.3455 30.4725 33.9551 30.2774C33.1744 29.6918 32.2962 29.2039 31.5155 28.6184C30.7348 28.0329 29.8565 27.5449 29.1734 27.057C28.2951 26.5691 27.612 26.0811 26.8313 25.4956C25.2699 24.5197 23.7085 23.5439 22.3423 22.7632C21.5616 22.3728 20.8785 21.8849 20.1954 21.5921C19.4147 21.2018 18.8291 20.8114 18.146 20.5187C16.8774 19.8355 15.6088 19.1524 14.6329 18.5669C13.5594 18.079 12.6811 17.591 11.9005 17.2007C11.1198 16.8103 10.4366 16.5176 10.0463 16.3224C9.65595 16.1272 9.36319 16.0296 9.36319 16.0296C8.77767 15.8345 8.58249 15.0538 8.87525 14.5658C9.07043 13.7851 9.75354 13.4924 10.3391 13.8827Z" fill="url(#paint12_linear_286_645)"></path>
</g>
<defs>
<linearGradient id="paint0_linear_286_645" x1="64.2396" y1="14.8878" x2="30.3855" y2="37.9405" gradientUnits="userSpaceOnUse">
<stop offset="0.0792079" stop-color="#B0E355"></stop>
<stop offset="0.2109" stop-color="#ADE152"></stop>
<stop offset="0.3205" stop-color="#A2DA4A"></stop>
<stop offset="0.4222" stop-color="#91CE3B"></stop>
<stop offset="0.5191" stop-color="#79BE27"></stop>
<stop offset="0.6118" stop-color="#5AA90D"></stop>
<stop offset="0.651" stop-color="#4A9F00"></stop>
<stop offset="1" stop-color="#346D0A"></stop>
</linearGradient>
<linearGradient id="paint1_linear_286_645" x1="38.9918" y1="56.4473" x2="28.4346" y2="0.133721" gradientUnits="userSpaceOnUse">
<stop offset="0.0792079" stop-color="#B0E355"></stop>
<stop offset="0.2109" stop-color="#ADE152"></stop>
<stop offset="0.3205" stop-color="#A2DA4A"></stop>
<stop offset="0.4222" stop-color="#91CE3B"></stop>
<stop offset="0.5191" stop-color="#79BE27"></stop>
<stop offset="0.6118" stop-color="#5AA90D"></stop>
<stop offset="0.651" stop-color="#4A9F00"></stop>
<stop offset="1" stop-color="#346D0A"></stop>
</linearGradient>
<linearGradient id="paint2_linear_286_645" x1="9.68165" y1="49.1914" x2="19.6968" y2="20.0902" gradientUnits="userSpaceOnUse">
<stop offset="0.0792079" stop-color="#B0E355"></stop>
<stop offset="0.2109" stop-color="#ADE152"></stop>
<stop offset="0.3205" stop-color="#A2DA4A"></stop>
<stop offset="0.4222" stop-color="#91CE3B"></stop>
<stop offset="0.5191" stop-color="#79BE27"></stop>
<stop offset="0.6118" stop-color="#5AA90D"></stop>
<stop offset="0.651" stop-color="#4A9F00"></stop>
<stop offset="1" stop-color="#346D0A"></stop>
</linearGradient>
<linearGradient id="paint3_linear_286_645" x1="18.1126" y1="52.0929" x2="28.1276" y2="22.9917" gradientUnits="userSpaceOnUse">
<stop offset="0.0792079" stop-color="#B0E355"></stop>
<stop offset="0.2109" stop-color="#ADE152"></stop>
<stop offset="0.3205" stop-color="#A2DA4A"></stop>
<stop offset="0.4222" stop-color="#91CE3B"></stop>
<stop offset="0.5191" stop-color="#79BE27"></stop>
<stop offset="0.6118" stop-color="#5AA90D"></stop>
<stop offset="0.651" stop-color="#4A9F00"></stop>
<stop offset="1" stop-color="#346D0A"></stop>
</linearGradient>
<linearGradient id="paint4_linear_286_645" x1="18.158" y1="52.1086" x2="28.1731" y2="23.0074" gradientUnits="userSpaceOnUse">
<stop offset="0.0792079" stop-color="#B0E355"></stop>
<stop offset="0.2109" stop-color="#ADE152"></stop>
<stop offset="0.3205" stop-color="#A2DA4A"></stop>
<stop offset="0.4222" stop-color="#91CE3B"></stop>
<stop offset="0.5191" stop-color="#79BE27"></stop>
<stop offset="0.6118" stop-color="#5AA90D"></stop>
<stop offset="0.651" stop-color="#4A9F00"></stop>
<stop offset="1" stop-color="#346D0A"></stop>
</linearGradient>
<linearGradient id="paint5_linear_286_645" x1="26.8601" y1="55.1036" x2="36.8753" y2="26.0023" gradientUnits="userSpaceOnUse">
<stop offset="0.0792079" stop-color="#B0E355"></stop>
<stop offset="0.2109" stop-color="#ADE152"></stop>
<stop offset="0.3205" stop-color="#A2DA4A"></stop>
<stop offset="0.4222" stop-color="#91CE3B"></stop>
<stop offset="0.5191" stop-color="#79BE27"></stop>
<stop offset="0.6118" stop-color="#5AA90D"></stop>
<stop offset="0.651" stop-color="#4A9F00"></stop>
<stop offset="1" stop-color="#346D0A"></stop>
</linearGradient>
<linearGradient id="paint6_linear_286_645" x1="35.0762" y1="57.9311" x2="45.0914" y2="28.8296" gradientUnits="userSpaceOnUse">
<stop offset="0.0792079" stop-color="#B0E355"></stop>
<stop offset="0.2109" stop-color="#ADE152"></stop>
<stop offset="0.3205" stop-color="#A2DA4A"></stop>
<stop offset="0.4222" stop-color="#91CE3B"></stop>
<stop offset="0.5191" stop-color="#79BE27"></stop>
<stop offset="0.6118" stop-color="#5AA90D"></stop>
<stop offset="0.651" stop-color="#4A9F00"></stop>
<stop offset="1" stop-color="#346D0A"></stop>
</linearGradient>
<linearGradient id="paint7_linear_286_645" x1="42.5607" y1="60.5069" x2="52.5759" y2="31.4055" gradientUnits="userSpaceOnUse">
<stop offset="0.0792079" stop-color="#B0E355"></stop>
<stop offset="0.2109" stop-color="#ADE152"></stop>
<stop offset="0.3205" stop-color="#A2DA4A"></stop>
<stop offset="0.4222" stop-color="#91CE3B"></stop>
<stop offset="0.5191" stop-color="#79BE27"></stop>
<stop offset="0.6118" stop-color="#5AA90D"></stop>
<stop offset="0.651" stop-color="#4A9F00"></stop>
<stop offset="1" stop-color="#346D0A"></stop>
</linearGradient>
<linearGradient id="paint8_linear_286_645" x1="51.4454" y1="63.5641" x2="61.4602" y2="34.4635" gradientUnits="userSpaceOnUse">
<stop offset="0.0792079" stop-color="#B0E355"></stop>
<stop offset="0.2109" stop-color="#ADE152"></stop>
<stop offset="0.3205" stop-color="#A2DA4A"></stop>
<stop offset="0.4222" stop-color="#91CE3B"></stop>
<stop offset="0.5191" stop-color="#79BE27"></stop>
<stop offset="0.6118" stop-color="#5AA90D"></stop>
<stop offset="0.651" stop-color="#4A9F00"></stop>
<stop offset="1" stop-color="#346D0A"></stop>
</linearGradient>
<linearGradient id="paint9_linear_286_645" x1="44.9666" y1="61.3348" x2="54.9818" y2="32.2333" gradientUnits="userSpaceOnUse">
<stop offset="0.0792079" stop-color="#B0E355"></stop>
<stop offset="0.2109" stop-color="#ADE152"></stop>
<stop offset="0.3205" stop-color="#A2DA4A"></stop>
<stop offset="0.4222" stop-color="#91CE3B"></stop>
<stop offset="0.5191" stop-color="#79BE27"></stop>
<stop offset="0.6118" stop-color="#5AA90D"></stop>
<stop offset="0.651" stop-color="#4A9F00"></stop>
<stop offset="1" stop-color="#346D0A"></stop>
</linearGradient>
<linearGradient id="paint10_linear_286_645" x1="34.317" y1="57.6696" x2="44.3321" y2="28.5685" gradientUnits="userSpaceOnUse">
<stop offset="0.0792079" stop-color="#B0E355"></stop>
<stop offset="0.2109" stop-color="#ADE152"></stop>
<stop offset="0.3205" stop-color="#A2DA4A"></stop>
<stop offset="0.4222" stop-color="#91CE3B"></stop>
<stop offset="0.5191" stop-color="#79BE27"></stop>
<stop offset="0.6118" stop-color="#5AA90D"></stop>
<stop offset="0.651" stop-color="#4A9F00"></stop>
<stop offset="1" stop-color="#346D0A"></stop>
</linearGradient>
<linearGradient id="paint11_linear_286_645" x1="26.0685" y1="54.831" x2="36.0839" y2="25.7296" gradientUnits="userSpaceOnUse">
<stop offset="0.0792079" stop-color="#B0E355"></stop>
<stop offset="0.2109" stop-color="#ADE152"></stop>
<stop offset="0.3205" stop-color="#A2DA4A"></stop>
<stop offset="0.4222" stop-color="#91CE3B"></stop>
<stop offset="0.5191" stop-color="#79BE27"></stop>
<stop offset="0.6118" stop-color="#5AA90D"></stop>
<stop offset="0.651" stop-color="#4A9F00"></stop>
<stop offset="1" stop-color="#346D0A"></stop>
</linearGradient>
<linearGradient id="paint12_linear_286_645" x1="27.1053" y1="55.188" x2="37.1206" y2="26.0865" gradientUnits="userSpaceOnUse">
<stop offset="0.0792079" stop-color="#B0E355"></stop>
<stop offset="0.2109" stop-color="#ADE152"></stop>
<stop offset="0.3205" stop-color="#A2DA4A"></stop>
<stop offset="0.4222" stop-color="#91CE3B"></stop>
<stop offset="0.5191" stop-color="#79BE27"></stop>
<stop offset="0.6118" stop-color="#5AA90D"></stop>
<stop offset="0.651" stop-color="#4A9F00"></stop>
<stop offset="1" stop-color="#346D0A"></stop>
</linearGradient>
<clipPath id="clip0_286_645">
<rect width="65.2783" height="32.1561" fill="white" transform="translate(23.0254 0.0253906) rotate(45)"></rect>
</clipPath>
</defs>
</svg>