<svg width="30" height="31" viewBox="0 0 30 31" fill="none" xmlns="http://www.w3.org/2000/svg">
<path fill-rule="evenodd" clip-rule="evenodd" d="M17.352 8.98957C15.8033 8.65664 14.236 8.63654 12.6474 8.98699C12.7086 9.25875 12.7404 9.54943 12.7404 9.85623C12.7404 10.7482 12.453 11.6949 11.9168 12.4125C12.0078 12.4298 12.0987 12.4481 12.1897 12.4674L12.292 12.4891C12.7781 11.5353 13.7309 10.9549 15 10.9549C16.2681 10.9549 17.2204 11.5344 17.7069 12.4869L17.8051 12.4655C17.8968 12.4455 17.9887 12.4267 18.0805 12.4089C17.546 11.6918 17.2596 10.7467 17.2596 9.85617C17.2596 9.55037 17.2912 9.26062 17.352 8.98957ZM26.0019 15.3446C28.2034 16.7549 29.5312 18.6019 29.5312 20.6404C29.5312 22.9254 27.8627 24.97 25.1652 26.4284C22.5555 27.8393 18.9609 28.712 15 28.712C11.0391 28.712 7.44445 27.8393 4.83475 26.4284C2.13727 24.97 0.46875 22.9254 0.46875 20.6404C0.46875 18.6019 1.7966 16.7549 3.99814 15.3446C3.99785 15.3615 3.9975 15.3784 3.9975 15.3954V16.4759C2.36936 17.6545 1.40625 19.0963 1.40625 20.6404C1.40625 22.5543 2.8858 24.3111 5.27789 25.6044C7.75781 26.9452 11.1945 27.7745 15 27.7745C18.8055 27.7745 22.2422 26.9452 24.7221 25.6044C27.1142 24.3111 28.5938 22.5543 28.5938 20.6404C28.5938 19.0963 27.6306 17.6545 26.0025 16.4759V15.3954C26.0025 15.3783 26.0021 15.3615 26.0019 15.3446ZM15 3.2373C16.1771 3.2373 17.1315 3.90814 17.1315 5.45531C17.1315 7.00242 16.1772 8.25668 15 8.25668C13.8228 8.25668 12.8685 7.00242 12.8685 5.45531C12.8685 3.9082 13.8229 3.2373 15 3.2373ZM10.8494 23.9522H11.947V20.6387C11.947 20.3798 12.1569 20.17 12.4157 20.17C12.6746 20.17 12.8845 20.3798 12.8845 20.6387V23.9522H17.1154V20.6387C17.1154 20.3798 17.3252 20.17 17.5841 20.17C17.843 20.17 18.0529 20.3798 18.0529 20.6387V23.9522H19.1505C19.4732 23.9522 19.7364 23.689 19.7364 23.3663V19.6496C19.7364 18.5955 18.7976 17.997 17.7295 17.7321C15.9359 17.2871 14.1176 17.257 12.2705 17.7321C11.2048 18.006 10.2635 18.595 10.2635 19.6496V23.3663C10.2635 23.689 10.5267 23.9522 10.8494 23.9522ZM20.674 19.698H22.4439V16.3845C22.4439 16.1256 22.6538 15.9158 22.9127 15.9158C23.1715 15.9158 23.3814 16.1256 23.3814 16.3845V19.698H24.4791C24.8018 19.698 25.065 19.4348 25.065 19.1121V15.3954C25.065 14.3413 24.1262 13.7428 23.058 13.4779C21.3959 13.0655 19.7126 13.0096 18.0046 13.3816V13.3816C18.047 13.6124 18.069 13.8559 18.069 14.1104C18.069 15.0024 17.7816 15.949 17.2454 16.6666C17.4821 16.7116 17.7188 16.7634 17.9553 16.8221C19.3567 17.1698 20.674 18.0626 20.674 19.6496V19.698H20.674ZM20.3285 7.63822C21.5057 7.63822 22.46 8.30912 22.46 9.85623C22.46 11.4033 21.5057 12.6576 20.3285 12.6576C19.1513 12.6576 18.1971 11.4033 18.1971 9.85623C18.1971 8.30912 19.1514 7.63822 20.3285 7.63822ZM5.52088 19.698H6.61846V16.3845C6.61846 16.1256 6.82834 15.9158 7.08721 15.9158C7.34607 15.9158 7.55596 16.1256 7.55596 16.3845V19.698H9.32596V19.6496C9.32596 18.0625 10.6422 17.1827 12.037 16.8241C12.2752 16.7629 12.5135 16.7092 12.7519 16.6632C12.2174 15.946 11.931 15.001 11.931 14.1104C11.931 13.8569 11.9528 13.6144 11.9948 13.3845V13.3844C10.333 13.0313 8.64979 13.0387 6.94184 13.4779C5.87619 13.7518 4.93488 14.3408 4.93488 15.3954V19.1121C4.935 19.4348 5.19814 19.698 5.52088 19.698ZM9.67148 7.63822C10.8486 7.63822 11.8029 8.30912 11.8029 9.85623C11.8029 11.4033 10.8487 12.6576 9.67148 12.6576C8.49428 12.6576 7.54002 11.4033 7.54002 9.85623C7.54002 8.30912 8.49428 7.63822 9.67148 7.63822ZM15 11.8924C16.1771 11.8924 17.1315 12.5633 17.1315 14.1104C17.1315 15.6576 16.1772 16.9118 15 16.9118C13.8228 16.9118 12.8685 15.6575 12.8685 14.1104C12.8685 12.5633 13.8229 11.8924 15 11.8924Z" fill="#269F62"></path>
</svg>