<!-- sample rectangle -->
<svg style="max-width: 88px;
width: 100%;" width="89" height="106" viewBox="0 0 89 106" fill="none" xmlns="http://www.w3.org/2000/svg">
<rect x="1" y="21.9746" width="80" height="80" rx="40" fill="#269F62"></rect>
<path d="M40.9974 45.8436C25.4986 45.8798 18.9949 65.8027 31.4595 74.9753C31.6356 75.0985 31.8528 75.1478 32.0647 75.1127C32.2767 75.0775 32.4664 74.9607 32.5933 74.7873C32.7202 74.614 32.7742 74.3977 32.7436 74.185C32.7131 73.9723 32.6005 73.78 32.43 73.6493C30.5987 72.3034 29.1091 70.5458 28.0816 68.5182C27.054 66.4906 26.517 64.2498 26.5141 61.9765C27.0705 43.7767 52.8816 42.343 55.3869 60.3803C55.4136 60.5943 55.5232 60.7892 55.6923 60.923C55.8613 61.0568 56.0762 61.1188 56.2905 61.0956C56.5048 61.0724 56.7014 60.9659 56.8379 60.799C56.9744 60.6321 57.0399 60.4183 57.0202 60.2035C56.5946 56.2526 54.7219 52.5992 51.7633 49.9476C48.8047 47.296 44.9696 45.8341 40.9974 45.8436Z" fill="white"></path>
<path d="M34.4413 76.7137C44.1175 81.2522 56.1529 74.3775 57.0281 63.6802C57.0475 63.4651 56.9815 63.251 56.8444 63.0843C56.7072 62.9175 56.51 62.8115 56.2953 62.7892C56.0806 62.7668 55.8657 62.83 55.6972 62.9649C55.5287 63.0999 55.4201 63.2958 55.3949 63.5103C55.0273 67.071 53.3506 70.3681 50.6903 72.762C48.0299 75.1559 44.5756 76.4758 40.9974 76.4657C38.9699 76.4727 36.9644 76.0461 35.1152 75.2144C34.9171 75.1291 34.6934 75.125 34.4924 75.2032C34.2913 75.2814 34.1291 75.4355 34.0406 75.6323C33.9522 75.829 33.9446 76.0527 34.0196 76.2551C34.0945 76.4574 34.246 76.6221 34.4413 76.7137Z" fill="white"></path>
<path d="M42.4984 68.9277C44.8621 68.8726 50.3268 68.0483 51.6154 61.3055C51.6763 60.9307 52.1617 57.5895 50.5323 55.7555C50.4571 55.6729 50.366 55.6063 50.2645 55.5597C50.1629 55.5131 50.0531 55.4875 49.9414 55.4843C49.8297 55.4812 49.7186 55.5006 49.6146 55.5414C49.5106 55.5822 49.4159 55.6436 49.3361 55.7218C48.3626 56.5923 47.1334 57.1239 45.8326 57.2371C44.929 57.2992 44.0464 57.5393 43.2357 57.9434C41.5774 58.7845 37.9448 61.3681 40.0202 67.1716C40.2011 67.6848 40.5365 68.1292 40.9803 68.4437C41.4242 68.7582 41.9545 68.9273 42.4984 68.9277ZM43.9786 59.409C44.5975 59.103 45.2706 58.9219 45.9594 58.8761C47.3083 58.7631 48.6034 58.2951 49.7132 57.5197C50.0835 58.6483 50.1809 59.8487 49.9972 61.0222C48.9984 66.3297 44.8867 67.223 42.5249 67.2832C42.9423 64.5982 47.0766 62.0021 46.9958 62.0431C47.1771 61.9266 47.3054 61.7435 47.3531 61.5333C47.4007 61.3231 47.364 61.1026 47.2507 60.9193C47.1374 60.7359 46.9566 60.6045 46.7474 60.5532C46.5381 60.5019 46.3171 60.5348 46.1319 60.645C45.964 60.7488 42.6944 62.8043 41.2954 65.7247C40.3697 62.1368 42.1954 60.314 43.9786 59.409Z" fill="white"></path>
<path d="M36.037 58.4226C36.7251 58.4635 37.3981 58.642 38.0162 58.9475C38.1781 59.0396 38.3665 59.0741 38.5506 59.0452C38.7346 59.0164 38.9034 58.9259 39.0294 58.7886C40.0384 57.2856 37.1761 56.8983 36.1582 56.7829C34.8595 56.6673 33.6325 56.1366 32.6587 55.2692C32.5793 55.1904 32.4849 55.1285 32.381 55.0872C32.2772 55.0459 32.166 55.0261 32.0543 55.0288C31.9425 55.0316 31.8325 55.057 31.7308 55.1034C31.6291 55.1498 31.5379 55.2163 31.4625 55.2989C29.8275 57.1272 30.3209 60.4709 30.3859 60.8641C31.29 65.6909 34.382 67.4582 36.8152 68.0914C36.9202 68.1179 37.0292 68.1234 37.1363 68.1075C37.2433 68.0917 37.3461 68.0549 37.4389 67.9992C37.5316 67.9434 37.6125 67.87 37.6768 67.7829C37.7411 67.6959 37.7875 67.597 37.8135 67.4919C37.8395 67.3869 37.8445 67.2777 37.8282 67.1707C37.8119 67.0637 37.7746 66.961 37.7186 66.8685C37.6625 66.7759 37.5887 66.6954 37.5014 66.6314C37.4141 66.5675 37.3151 66.5214 37.2099 66.4959C33.258 65.5533 30.9801 61.2487 32.2783 57.0638C33.3903 57.839 34.6866 58.3076 36.037 58.4226Z" fill="white"></path>
<path d="M61.7993 67.4943C61.5912 67.4305 61.3664 67.4516 61.1737 67.5529C60.9811 67.6542 60.8363 67.8276 60.7708 68.0353C54.9669 86.596 28.8944 87.2472 22.1439 69.0786L24.2316 70.1878C24.4235 70.2853 24.646 70.3035 24.8512 70.2385C25.0564 70.1736 25.2279 70.0306 25.3288 69.8405C25.4297 69.6503 25.452 69.4281 25.3908 69.2217C25.3297 69.0153 25.19 68.8411 25.0018 68.7367L20.8212 66.516C20.7173 66.4616 20.6031 66.43 20.486 66.4233C20.369 66.4166 20.2519 66.4349 20.1424 66.4769C20.033 66.519 19.9338 66.5839 19.8513 66.6672C19.7689 66.7506 19.7052 66.8506 19.6644 66.9606L18.0446 71.4102C17.9746 71.6139 17.9874 71.8369 18.0802 72.0312C18.1729 72.2256 18.3383 72.3758 18.5406 72.4494C18.7429 72.523 18.9661 72.5143 19.162 72.425C19.3579 72.3357 19.5109 72.173 19.5882 71.9719L20.5198 69.4126C27.6451 89.2554 56.033 88.6851 62.3401 68.523C62.4047 68.3148 62.384 68.0895 62.2826 67.8966C62.1812 67.7037 62.0074 67.559 61.7993 67.4943Z" fill="white"></path>
<path d="M63.4592 50.6061C63.2545 50.5322 63.0289 50.5423 62.8316 50.6344C62.6344 50.7264 62.4816 50.8929 62.4067 51.0973L61.5773 53.376C53.6508 34.5656 26.2918 35.8366 20.2035 55.43C20.1436 55.6368 20.1671 55.8589 20.2691 56.0485C20.3711 56.2381 20.5434 56.3801 20.749 56.444C20.9545 56.5079 21.1769 56.4885 21.3684 56.3901C21.5598 56.2917 21.705 56.122 21.7727 55.9177C27.4363 37.7193 52.8567 36.6233 60.1161 54.1315L57.7631 52.8815C57.5712 52.784 57.3488 52.7658 57.1436 52.8308C56.9384 52.8957 56.7669 53.0387 56.666 53.2288C56.5651 53.419 56.5428 53.6412 56.604 53.8476C56.6651 54.054 56.8048 54.2282 56.993 54.3326L61.1736 56.5534C61.2775 56.6077 61.3917 56.6394 61.5088 56.6461C61.6258 56.6529 61.743 56.6346 61.8524 56.5925C61.9619 56.5505 62.0611 56.4856 62.1435 56.4022C62.2259 56.3187 62.2897 56.2187 62.3304 56.1087L63.9502 51.6592C63.9872 51.5578 64.0039 51.4501 63.9992 51.3423C63.9946 51.2344 63.9687 51.1286 63.9231 51.0308C63.8775 50.9329 63.813 50.8451 63.7335 50.7722C63.6539 50.6993 63.5607 50.6429 63.4592 50.6061Z" fill="white"></path>
<path d="M71.6881 95.9055C95.1953 76.828 93.0804 32.984 66.8749 17.0452C66.8263 17.1187 66.9235 16.9716 66.8749 17.0452C50.8064 6.42746 36.7799 12.239 36.7799 12.239C49.3964 5.52018 62.8395 12.3616 67.7257 15.4022C68.4307 4.44124 56.7865 1.79295 56.7865 1.79295C36.4882 -3.33199 27.9799 17.2904 27.9799 17.2904C37.4848 13.6612 49.129 20.3801 49.129 20.3801C58.1721 24.6468 62.4749 22.7831 65.1975 19.5218C70.6185 22.7831 76.4771 27.6874 81.4119 39.4821C88.3401 56.034 85.1312 80.4326 71.1777 92.6197C46.771 113.904 7.38981 104.954 -0.000244141 71.5804C6.41744 104.88 46.8683 116.037 71.6881 95.9055Z" fill="url(#paint0_linear_433_422)"></path>
<defs>
<linearGradient id="paint0_linear_433_422" x1="-0.000244141" y1="53.4617" x2="88.0142" y2="53.4617" gradientUnits="userSpaceOnUse">
<stop stop-color="#018C81"></stop>
<stop offset="1" stop-color="#A8E304"></stop>
</linearGradient>
</defs>
</svg>