<svg style="max-width: 88px;
width: 100%;" width="89" height="106" viewBox="0 0 89 106" fill="none" xmlns="http://www.w3.org/2000/svg">
<rect x="0.999756" y="21.959" width="80" height="80" rx="40" fill="#269F62"></rect>
<g clip-path="url(#clip0_433_429)">
<path d="M62.6259 66.8147C62.2269 65.8735 61.4683 65.1244 60.5135 64.7289C59.5588 64.3334 58.4844 64.3231 57.522 64.7003C57.5038 64.6657 47.7754 68.7491 47.8008 68.6118C47.5106 68.1599 47.1323 67.7692 46.6878 67.4622C46.2432 67.1553 45.7412 66.9382 45.2109 66.8235L39.1708 65.4646C36.1124 62.9941 32.1349 64.108 31.9644 64.1578C31.9332 64.1665 31.9026 64.1772 31.873 64.19L27.0481 66.2113C26.6091 65.7338 26.0261 65.4076 25.3848 65.2807C24.7434 65.1538 24.0777 65.2329 23.4854 65.5064L20.7788 66.7561C20.0376 67.0982 19.4644 67.7159 19.1852 68.4736C18.9059 69.2313 18.9433 70.0671 19.2892 70.7977L20.9862 74.3612C21.0828 74.5548 21.2528 74.7033 21.4595 74.7748C21.6662 74.8462 21.8932 74.8349 22.0915 74.7433C22.2899 74.6516 22.4438 74.487 22.52 74.2847C22.5963 74.0825 22.5889 73.8589 22.4994 73.6619L20.8033 70.1001C20.6446 69.765 20.6275 69.3816 20.7557 69.0341C20.884 68.6866 21.1471 68.4034 21.4873 68.2468L24.1955 66.9964C24.5002 66.8587 24.8448 66.8333 25.1669 66.9247C25.489 67.0161 25.7671 67.2182 25.9506 67.4944C26.2727 68.0435 31.8268 79.7842 31.9758 80.0792C32.1342 80.4134 32.1521 80.7958 32.0255 81.1429C31.8989 81.49 31.6381 81.7738 31.3 81.9325L28.5909 83.183C28.2506 83.337 27.8624 83.3526 27.5105 83.2265C27.1586 83.1004 26.8713 82.8428 26.7112 82.5095L23.9197 76.6419C23.8236 76.4478 23.6538 76.2986 23.447 76.2266C23.2402 76.1546 23.0129 76.1656 22.8143 76.2572C22.6156 76.3488 22.4615 76.5136 22.3852 76.7161C22.3089 76.9186 22.3165 77.1426 22.4064 77.3396L25.1971 83.2071C25.5441 83.9373 26.1715 84.5019 26.9412 84.7768C27.711 85.0517 28.5601 85.0143 29.3019 84.673L32.0109 83.4217C32.7491 83.0772 33.3189 82.4593 33.5961 81.7028C33.8734 80.9462 33.8355 80.1124 33.4907 79.3833L33.4427 79.2824C33.8199 79.1343 34.2332 79.1001 34.6302 79.184C34.7085 79.2346 41.5828 80.9592 41.5828 80.9592C42.5161 81.1789 43.4984 81.0635 44.3531 80.6338L52.6941 76.3543C52.8863 76.251 53.0297 76.0777 53.0934 75.8715C53.1572 75.6653 53.1363 75.4427 53.0351 75.2515C52.934 75.0604 52.7607 74.9159 52.5525 74.8492C52.3444 74.7825 52.1179 74.7989 51.9219 74.8948L43.5858 79.1711C43.0917 79.4221 42.5223 79.4894 41.9819 79.3608L35.3893 77.7221C34.9645 77.5553 34.5099 77.4747 34.0528 77.4853C33.5956 77.4958 33.1453 77.5973 32.729 77.7836L27.8999 67.6429L32.4745 65.7266C32.8647 65.6269 35.999 64.9157 38.2363 66.8421C38.3405 66.9316 38.4655 66.9943 38.6003 67.0245L44.8395 68.4285C48.0411 69.2801 46.6374 73.2289 43.5588 72.5272L36.6773 71.4198C36.4587 71.3852 36.2351 71.4374 36.0555 71.5649C35.876 71.6924 35.7551 71.8848 35.7194 72.1C35.6838 72.3151 35.7362 72.5354 35.8653 72.7125C35.9944 72.8896 36.1895 73.0091 36.4079 73.0448C37.0583 73.1196 43.771 74.2935 44.2372 74.2543C44.7796 74.2757 45.3207 74.186 45.8262 73.991C46.3317 73.7961 46.7906 73.5 47.174 73.1215C47.5574 72.7431 47.857 72.2904 48.0537 71.7922C48.2504 71.294 48.3401 70.761 48.317 70.2269L58.1587 66.2216C60.9663 65.1886 62.6067 69.3835 60.0368 70.7302L54.8971 73.3718C54.7007 73.473 54.5532 73.6467 54.4868 73.8549C54.4205 74.0631 54.4409 74.2888 54.5434 74.4822C54.646 74.6757 54.8224 74.8211 55.0338 74.8865C55.2452 74.952 55.4743 74.9321 55.6709 74.8313L60.8107 72.1896C61.7426 71.681 62.4465 70.8462 62.7827 69.8507C63.1189 68.8551 63.063 67.7715 62.6259 66.8147Z" fill="white"></path>
<path d="M48.0767 44.0445C47.1057 45.0166 46.2006 46.0504 45.3673 47.1393C44.7946 46.3948 44.1722 45.6888 43.5042 45.0258C43.3476 44.8737 43.1365 44.7883 42.9165 44.7883C42.6965 44.7883 42.4854 44.8737 42.3288 45.0258C41.9338 45.4108 38.4664 48.8641 38.4664 51.5395C38.4652 52.1407 38.5904 52.7357 38.8342 53.287C39.078 53.8382 39.4351 54.3338 39.883 54.7425C40.3309 55.1512 40.8599 55.4642 41.4366 55.6617C42.0134 55.8593 42.6254 55.9371 43.2342 55.8902C43.8425 57.099 44.8482 58.0697 46.0877 58.6443C47.3273 59.219 48.7279 59.3638 50.0617 59.0553C51.3955 58.7468 52.5841 58.003 53.4341 56.945C54.2841 55.887 54.7457 54.577 54.7436 53.228C54.7436 49.4323 49.4765 44.2623 49.252 44.0445C49.0955 43.8924 48.8843 43.8071 48.6644 43.8071C48.4444 43.8071 48.2332 43.8924 48.0767 44.0445ZM40.1381 51.5395C40.1381 50.1363 41.8122 48.0106 42.9165 46.8059C43.9199 47.9186 45.6644 50.0245 45.695 51.5395C45.689 52.2612 45.3937 52.9514 44.8733 53.4596C44.3528 53.9679 43.6495 54.253 42.9165 54.253C42.1835 54.253 41.4802 53.9679 40.9598 53.4596C40.4394 52.9514 40.1441 52.2612 40.1381 51.5395ZM48.6644 57.5678C47.9027 57.5646 47.1547 57.368 46.4928 56.9968C45.8309 56.6256 45.2775 56.0924 44.8862 55.4489C47.5286 54.186 48.0406 50.9855 46.3576 48.5911C47.0695 47.6213 47.8407 46.695 48.6668 45.8174C50.2846 47.5325 53.072 50.9585 53.072 53.228C53.0708 54.3786 52.606 55.4818 51.7797 56.2954C50.9534 57.109 49.833 57.5666 48.6644 57.5678Z" fill="white"></path>
<path d="M46.6083 64.1193C48.2915 64.1168 49.9577 63.7878 51.5117 63.1512C53.0658 62.5146 54.4772 61.5828 55.6655 60.409C56.8537 59.2352 57.7955 57.8425 58.437 56.3103C59.0785 54.7781 59.4072 53.1365 59.4042 51.4792C59.3969 51.2629 59.3033 51.0582 59.1438 50.9093C58.9843 50.7604 58.7716 50.6794 58.5519 50.6837C58.3321 50.688 58.1229 50.7774 57.9696 50.9325C57.8163 51.0875 57.7311 51.2958 57.7326 51.5122C57.7304 54.4172 56.5579 57.2028 54.4724 59.2577C52.3869 61.3126 49.5587 62.4691 46.6083 62.4734C31.8402 61.8724 31.841 41.1512 46.6084 40.5502C49.0098 40.5591 51.3444 41.3292 53.2667 42.7464C55.1889 44.1636 56.5966 46.1526 57.2813 48.4189C57.3461 48.6255 57.4909 48.7987 57.6844 48.9011C57.8779 49.0035 58.1045 49.0268 58.3153 48.9659C58.5261 48.9051 58.7041 48.7651 58.8109 48.5761C58.9177 48.3871 58.9446 48.1643 58.8859 47.9559C54.3979 34.1246 34.1398 36.9685 33.8033 51.5123C33.8074 54.8548 35.1578 58.0593 37.5583 60.4227C39.9589 62.7862 43.2135 64.1156 46.6083 64.1193Z" fill="white"></path>
</g>
<path d="M71.6881 95.9055C95.1953 76.828 93.0804 32.984 66.8749 17.0452C66.8263 17.1187 66.9235 16.9716 66.8749 17.0452C50.8064 6.42746 36.7799 12.239 36.7799 12.239C49.3964 5.52018 62.8395 12.3616 67.7257 15.4022C68.4307 4.44124 56.7865 1.79295 56.7865 1.79295C36.4882 -3.33199 27.9799 17.2904 27.9799 17.2904C37.4848 13.6612 49.129 20.3801 49.129 20.3801C58.1721 24.6468 62.4749 22.7831 65.1975 19.5218C70.6185 22.7831 76.4771 27.6874 81.4119 39.4821C88.3401 56.034 85.1312 80.4326 71.1777 92.6197C46.771 113.904 7.38981 104.954 -0.000244141 71.5804C6.41744 104.88 46.8683 116.037 71.6881 95.9055Z" fill="url(#paint0_linear_433_429)"></path>
<defs>
<linearGradient id="paint0_linear_433_429" x1="-0.000244141" y1="53.4617" x2="88.0142" y2="53.4617" gradientUnits="userSpaceOnUse">
<stop stop-color="#018C81"></stop>
<stop offset="1" stop-color="#A8E304"></stop>
</linearGradient>
<clipPath id="clip0_433_429">
<rect width="46" height="46" fill="white" transform="translate(17.9998 38.959)"></rect>
</clipPath>
</defs>
</svg>