<!-- sample rectangle -->
<svg width="18" height="18" viewBox="0 0 18 18" fill="none" xmlns="http://www.w3.org/2000/svg">
<g clip-path="url(#clip0_104_448)">
<path d="M17.7964 7.96586C10.109 8.20551 9.54014 11.3783 9.80109 13.0923C11.205 11.3523 13.2612 10.774 13.3291 10.7531C10.9127 11.9879 9.11219 13.8738 8.6999 17.3853C8.60596 18.1876 9.84806 18.224 9.79587 17.4165C9.73324 16.4892 9.94722 15.4211 10.49 14.3688C15.8289 16.9945 17.6869 9.66427 18 8.20552C18.0261 8.08048 17.9269 7.96065 17.7964 7.96586Z" fill="url(#paint0_linear_104_448)"></path>
<path d="M9.70716 9.5809C10.5265 8.60145 11.7999 7.88249 13.517 7.42923C13.4961 7.40839 13.47 7.38234 13.4491 7.3563C13.1203 7.02287 12.7028 6.88741 12.3062 6.76237C12.0452 6.67902 11.8052 6.60087 11.6016 6.47583C10.9284 6.05384 10.7875 5.07439 10.9962 4.37106C11.2102 3.64168 11.6903 3.04776 12.2175 2.50072C13.7831 3.53748 14.9156 5.17858 15.2601 7.08538C15.688 7.02808 16.1369 6.97598 16.6013 6.94472C15.9333 3.00608 12.4941 0 8.36068 0C3.75239 0 0 3.74588 0 8.34616C0 12.7276 3.39751 16.3276 7.7031 16.6663C7.77617 16.2026 7.88055 15.7598 8.0058 15.3378C7.26993 15.3013 6.56016 15.1502 5.89736 14.9001C6.8733 14.2802 7.80748 13.5977 8.68426 12.8579C8.5851 11.6336 8.93476 10.503 9.70716 9.5809ZM7.7031 7.81997C7.47347 8.18466 7.23862 8.56498 7.18643 9.02865C7.15512 9.3152 7.20209 9.59653 7.24384 9.86223C7.30125 10.2061 7.34822 10.503 7.22296 10.7271C7.17077 10.8208 7.03508 10.9823 6.76892 11.0032C6.52363 11.024 6.01218 10.9302 5.30763 10.0967C4.11772 8.70043 3.28791 8.66918 2.55726 8.63792C2.14497 8.62229 1.77965 8.60666 1.34648 8.33053C1.3517 4.61592 4.2795 1.56816 7.94839 1.35456C7.91186 1.7974 7.64048 2.29233 7.38997 2.74559C7.13946 3.19884 6.92549 3.58958 6.91505 3.95427C6.89939 4.58987 7.24384 5.10043 7.57785 5.59537C7.87011 6.02779 8.14671 6.43936 8.1154 6.87178C8.09452 7.18958 7.90664 7.49175 7.7031 7.81997Z" fill="url(#paint1_linear_104_448)"></path>
</g>
<defs>
<linearGradient id="paint0_linear_104_448" x1="8.69482" y1="12.9853" x2="18.0042" y2="12.9853" gradientUnits="userSpaceOnUse">
<stop stop-color="#018C81"></stop>
<stop offset="1" stop-color="#A8E304"></stop>
</linearGradient>
<linearGradient id="paint1_linear_104_448" x1="0" y1="8.33314" x2="16.6013" y2="8.33314" gradientUnits="userSpaceOnUse">
<stop stop-color="#018C81"></stop>
<stop offset="1" stop-color="#A8E304"></stop>
</linearGradient>
<clipPath id="clip0_104_448">
<rect width="18" height="18" fill="white"></rect>
</clipPath>
</defs>
</svg>